<?xml version="1.0" encoding="utf-8"?>
<!-- Generator: Adobe Illustrator 25.0.1, SVG Export Plug-In . SVG Version: 6.00 Build 0)  -->
<svg version="1.1" id="Capa_1" xmlns="http://www.w3.org/2000/svg" xmlns:xlink="http://www.w3.org/1999/xlink" x="0px" y="0px"
	 viewBox="0 0 3968.5 3968.5" style="enable-background:new 0 0 3968.5 3968.5;" xml:space="preserve">
<style type="text/css">
	.st0{fill:url(#SVGID_1_);}
	.st1{fill:url(#SVGID_2_);}
	.st2{fill:url(#SVGID_3_);}
</style>
<g>
	<g>
		<linearGradient id="SVGID_1_" gradientUnits="userSpaceOnUse" x1="916.9083" y1="2366.9736" x2="3391.0037" y2="1367.3743">
			<stop  offset="0" style="stop-color:#D97114"/>
			<stop  offset="0.1059" style="stop-color:#E38426"/>
			<stop  offset="0.2552" style="stop-color:#ED9838"/>
			<stop  offset="0.4265" style="stop-color:#F4A746"/>
			<stop  offset="0.6367" style="stop-color:#F8AF4F"/>
			<stop  offset="1" style="stop-color:#F9B251"/>
		</linearGradient>
		<path class="st0" d="M1973.39,31.47c-11.85-0.32-23.74-0.48-35.66-0.48c-11.92,0-23.81,0.16-35.66,0.48
			C978.67,56.24,379.7,1074.25,755.69,1967.52l1088.83,1914.22c42.3,74.36,237.17,74.36,279.46,0l1088.83-1914.22
			C3588.8,1074.25,2896.79,56.24,1973.39,31.47z M1809.43,2050.32c-359.56,0-651.04-308.6-651.04-689.28
			c0-380.68,291.48-689.28,651.04-689.28s651.04,308.6,651.04,689.28C2460.48,1741.72,2168.99,2050.32,1809.43,2050.32z"/>
		<linearGradient id="SVGID_2_" gradientUnits="userSpaceOnUse" x1="2568.0862" y1="3937.5071" x2="2568.0862" y2="30.9927">
			<stop  offset="0" style="stop-color:#F9B251"/>
			<stop  offset="0.2287" style="stop-color:#F5AA49"/>
			<stop  offset="0.5835" style="stop-color:#EA9333"/>
			<stop  offset="1" style="stop-color:#D97114"/>
		</linearGradient>
		<path class="st1" d="M2066.43,31.47c-11.85-0.32-116.78-0.48-128.7-0.48c-11.92,0-23.81,0.16-35.66,0.48
			c-31.27,0.84-62.15,2.85-92.64,5.93c870.19,87.67,1417,1067.1,1053.75,1930.13l-1019.94,1793.1c-20.8,36.56-20.8,82.3,0,118.86
			l1.28,2.26c42.3,74.36,237.17,74.36,279.46,0l1088.83-1914.22C3588.8,1074.25,2989.83,56.24,2066.43,31.47z"/>
		<linearGradient id="SVGID_3_" gradientUnits="userSpaceOnUse" x1="1545.1478" y1="2050.3196" x2="1545.1478" y2="671.7593">
			<stop  offset="0" style="stop-color:#F9B251"/>
			<stop  offset="0.2308" style="stop-color:#F6AD4C"/>
			<stop  offset="0.5048" style="stop-color:#EF9E3D"/>
			<stop  offset="0.7996" style="stop-color:#E38527"/>
			<stop  offset="1" style="stop-color:#D97114"/>
		</linearGradient>
		<path class="st2" d="M1809.43,2050.32c41.87,0,82.8-4.24,122.48-12.23c-301-60.67-528.57-340.7-528.57-677.05
			s227.56-616.38,528.57-677.05c-39.67-8-80.6-12.23-122.48-12.23c-359.56,0-651.05,308.6-651.05,689.28
			C1158.39,1741.72,1449.87,2050.32,1809.43,2050.32z"/>
	</g>
</g>
</svg>
